<svg width="79" height="79" viewBox="0 0 79 79" fill="none" xmlns="http://www.w3.org/2000/svg">
<path d="M21.6042 9.07298C22.047 8.27947 23.0498 7.99473 23.8435 8.43724C24.6371 8.87996 24.9216 9.88276 24.4792 10.6765L21.7009 15.6589C19.3935 19.7964 18.4357 24.5513 18.9607 29.2595C19.4359 33.5199 21.1049 37.56 23.7761 40.9128L24.5515 41.8855C26.4047 44.2116 28.7878 46.0604 31.5017 47.2771C32.7767 47.8486 34.1128 48.2756 35.4832 48.5486L45.1853 50.4812C46.9853 50.8398 48.8167 51.0202 50.6521 51.0202H55.9333C55.9048 50.7676 55.8195 50.5163 55.6658 50.2878L49.0232 40.4187C48.5157 39.6646 48.7154 38.642 49.4695 38.1345C50.2235 37.6274 51.2462 37.8269 51.7537 38.5808L58.3962 48.4499C60.1247 51.0182 59.0902 54.5252 56.2449 55.7449L36.8572 64.0544C36.0218 64.4124 35.0542 64.0254 34.696 63.1902C34.3381 62.3548 34.725 61.3872 35.5603 61.029L51.2322 54.3122H50.6521C48.6007 54.3122 46.5536 54.1105 44.5417 53.7097L34.8396 51.7761C33.2274 51.4549 31.6561 50.9534 30.156 50.281C26.9626 48.8495 24.158 46.6743 21.9773 43.9372L21.2019 42.9636C18.1441 39.1256 16.2332 34.5017 15.6892 29.6247C15.0881 24.2351 16.1845 18.7917 18.8259 14.0554L21.6042 9.07298Z" fill="black"/>
</svg>
