<svg width="39" height="39" viewBox="0 0 39 39" fill="none" xmlns="http://www.w3.org/2000/svg">
<path d="M30.8125 7.31439C31.2599 7.28037 31.6505 7.61602 31.6846 8.06342C31.7082 8.37458 31.5929 8.66632 31.5078 8.8515C31.408 9.06866 31.2671 9.30635 31.1035 9.55463C30.7747 10.0536 30.3022 10.668 29.7227 11.3622C28.5601 12.7548 26.9177 14.5303 25.0088 16.4619C21.3231 20.1912 16.5998 24.5429 12.3291 27.9072L25.3213 30.0732C25.7638 30.147 26.063 30.5662 25.9893 31.0087C25.9154 31.4513 25.4963 31.7505 25.0537 31.6767L10.4287 29.2392L9.75 29.1259V12.9999C9.75004 12.5512 10.1138 12.1874 10.5625 12.1874C11.0112 12.1874 11.375 12.5512 11.375 12.9999V26.5908C15.5657 23.2845 20.2155 19.0005 23.8535 15.3193C25.745 13.4053 27.3529 11.665 28.4756 10.3203C29.0383 9.64616 29.467 9.08601 29.7471 8.66107C29.8879 8.44736 29.9794 8.28556 30.0312 8.17279C30.0488 8.13471 30.0563 8.10787 30.0615 8.09271C30.0772 7.68579 30.3967 7.34603 30.8125 7.31439Z" fill="#F57336"/>
</svg>
