<svg width="20" height="18" viewBox="0 0 20 18" fill="none" xmlns="http://www.w3.org/2000/svg">
<path d="M3.996 17.094C2.76266 17.094 1.80066 16.65 1.11 15.762C0.369998 14.874 -1.94833e-06 13.6653 -1.94833e-06 12.136C-1.94833e-06 9.86667 0.493331 7.79467 1.48 5.92C2.516 4.04533 4.16866 2.294 6.438 0.666C7.03 0.222 7.49867 0.123333 7.844 0.37C8.04133 0.518001 8.14 0.740001 8.14 1.036C8.14 1.28267 7.96733 1.52933 7.622 1.776C5.94467 3.20667 4.85933 4.31667 4.366 5.106C3.922 5.846 3.7 6.63533 3.7 7.474C3.7 8.362 3.89733 9.05267 4.292 9.546C4.68666 9.99 5.13066 10.3847 5.624 10.73C6.11733 11.026 6.56133 11.396 6.956 11.84C7.35066 12.284 7.548 12.95 7.548 13.838C7.548 14.726 7.22733 15.4907 6.586 16.132C5.994 16.7733 5.13067 17.094 3.996 17.094ZM15.096 17.094C13.8627 17.094 12.876 16.65 12.136 15.762C11.4453 14.874 11.1 13.6653 11.1 12.136C11.1 9.86667 11.5933 7.79467 12.58 5.92C13.616 4.04533 15.2687 2.294 17.538 0.666C18.13 0.222 18.5987 0.123333 18.944 0.37C19.1413 0.518001 19.24 0.740001 19.24 1.036C19.24 1.28267 19.0673 1.52933 18.722 1.776C17.0447 3.20667 15.9593 4.31667 15.466 5.106C15.022 5.846 14.8 6.63533 14.8 7.474C14.8 8.362 14.9973 9.05267 15.392 9.546C15.7867 9.99 16.2307 10.3847 16.724 10.73C17.2173 11.026 17.6613 11.396 18.056 11.84C18.4507 12.284 18.648 12.95 18.648 13.838C18.648 14.726 18.3273 15.4907 17.686 16.132C17.094 16.7733 16.2307 17.094 15.096 17.094Z" fill="black"/>
</svg>
