<svg width="14" height="14" viewBox="0 0 14 14" fill="none" xmlns="http://www.w3.org/2000/svg">
<path d="M4.87801 4.24205L6.25047 1.6932C6.45475 1.31383 6.99327 1.29828 7.21909 1.66524L8.82206 4.27007C8.90209 4.40012 9.03183 4.49179 9.18114 4.52378L11.9113 5.10882C12.333 5.19918 12.498 5.71268 12.2079 6.03179L10.2258 8.21215C10.1236 8.32461 10.0715 8.47385 10.0816 8.62551L10.2847 11.6715C10.3125 12.0882 9.89027 12.3872 9.50642 12.2227L6.65962 11.0026C6.51403 10.9402 6.34881 10.9425 6.20499 11.0089L3.71905 12.1562C3.3188 12.341 2.87214 12.0115 2.9304 11.5746L3.3209 8.64586C3.34268 8.48246 3.29126 8.31777 3.18037 8.19579L1.22358 6.04332C0.931193 5.72169 1.10147 5.20405 1.5277 5.1188L4.49531 4.52528C4.6587 4.4926 4.79901 4.38876 4.87801 4.24205Z" fill="#F57336" stroke="#F57336" stroke-width="0.559211"/>
</svg>
