<svg width="26" height="26" viewBox="0 0 26 26" fill="none" xmlns="http://www.w3.org/2000/svg">
<rect width="26" height="26" rx="13" fill="#F57336"/>
<path d="M13.26 20.7C13.1267 20.7 12.9867 20.6133 12.84 20.44C12.7067 20.28 12.58 20.0533 12.46 19.76C12.26 19.28 12.12 18.7733 12.04 18.24C11.96 17.72 11.92 17.1933 11.92 16.66C11.92 16.0733 11.96 15.5 12.04 14.94C12.12 14.38 12.2067 13.8733 12.3 13.42C12.3667 13.1 12.4467 12.76 12.54 12.4C12.6333 12.04 12.72 11.7533 12.8 11.54C12.72 11.5533 12.5933 11.6 12.42 11.68C12.2467 11.76 12.0667 11.84 11.88 11.92C11.7067 12 11.5533 12.04 11.42 12.04C11.22 12.04 11.12 11.9267 11.12 11.7C11.12 11.58 11.16 11.4733 11.24 11.38C11.3333 11.2867 11.4467 11.2133 11.58 11.16C11.8467 11.04 12.14 10.9533 12.46 10.9C12.78 10.8333 12.9933 10.7667 13.1 10.7L13.62 9.38C13.6733 9.24667 13.7667 9.03333 13.9 8.74C14.0467 8.43333 14.2133 8.10667 14.4 7.76C14.6 7.41333 14.7933 7.1 14.98 6.82C15.1267 6.60667 15.2667 6.44 15.4 6.32C15.5333 6.18667 15.68 6.12 15.84 6.12C16.08 6.12 16.2 6.21333 16.2 6.4C16.2 6.50667 16.1533 6.66667 16.06 6.88C15.98 7.09333 15.8267 7.37333 15.6 7.72C15.3467 8.12 15.0867 8.52 14.82 8.92C14.5667 9.30667 14.3467 9.71333 14.16 10.14C14.1467 10.1933 14.1133 10.28 14.06 10.4C14.02 10.5067 13.9867 10.5733 13.96 10.6L14.36 10.54C14.4667 10.5267 14.5867 10.52 14.72 10.52C14.8533 10.5067 15 10.5 15.16 10.5C15.3867 10.5 15.6 10.5133 15.8 10.54C16.0133 10.5533 16.1867 10.5867 16.32 10.64C16.3867 10.6667 16.4467 10.7 16.5 10.74C16.5667 10.7667 16.6 10.7933 16.6 10.82C16.6 10.8733 16.4267 10.9 16.08 10.9C15.88 10.9 15.5933 10.9333 15.22 11C14.86 11.0667 14.4467 11.1733 13.98 11.32C13.7533 11.3867 13.6 11.48 13.52 11.6C13.44 11.72 13.3333 12.0067 13.2 12.46C13 13.18 12.84 13.8733 12.72 14.54C12.6 15.1933 12.5067 15.86 12.44 16.54C12.4267 16.6733 12.4133 16.8133 12.4 16.96C12.4 17.1067 12.4 17.2667 12.4 17.44C12.4 17.8933 12.44 18.3667 12.52 18.86C12.6133 19.3533 12.7467 19.78 12.92 20.14C12.96 20.22 13 20.2933 13.04 20.36C13.0933 20.4267 13.1533 20.4733 13.22 20.5C13.3133 20.54 13.36 20.5867 13.36 20.64C13.36 20.68 13.3267 20.7 13.26 20.7Z" fill="white"/>
</svg>
